<?xml version="1.0" encoding="UTF-8" standalone="no"?>
<!DOCTYPE svg PUBLIC "-//W3C//DTD SVG 1.1//EN"
 "http://www.w3.org/Graphics/SVG/1.1/DTD/svg11.dtd">
<!-- Generated by graphviz version 2.38.0 (20140413.2041)
 -->
<!-- Title: controllers_diagram Pages: 1 -->
<svg width="386pt" height="382pt"
 viewBox="0.00 0.00 385.84 382.00" xmlns="http://www.w3.org/2000/svg" xmlns:xlink="http://www.w3.org/1999/xlink">
<g id="graph0" class="graph" transform="scale(1 1) rotate(0) translate(72.1553 242.5)">
<title>controllers_diagram</title>
<polygon fill="white" stroke="none" points="-72.1553,139.5 -72.1553,-242.5 313.688,-242.5 313.688,139.5 -72.1553,139.5"/>
<!-- _diagram_info -->
<g id="node1" class="node"><title>_diagram_info</title>
<text text-anchor="start" x="110.312" y="42.9" font-family="Times,serif" font-size="13.00">Controllers diagram</text>
<text text-anchor="start" x="110.312" y="55.9" font-family="Times,serif" font-size="13.00">Date: Apr 05 2015 &#45; 22:06</text>
<text text-anchor="start" x="110.312" y="68.9" font-family="Times,serif" font-size="13.00">Migration version: 20150405104538</text>
<text text-anchor="start" x="110.312" y="81.9" font-family="Times,serif" font-size="13.00">Generated by RailRoady 1.3.0</text>
<text text-anchor="start" x="110.312" y="94.9" font-family="Times,serif" font-size="13.00">http://railroady.prestonlee.com</text>
</g>
<!-- ApplicationController -->
<g id="node2" class="node"><title>ApplicationController</title>
<path fill="none" stroke="black" d="M114.034,-1C114.034,-1 287.966,-1 287.966,-1 293.966,-1 299.966,-7 299.966,-13 299.966,-13 299.966,-79 299.966,-79 299.966,-85 293.966,-91 287.966,-91 287.966,-91 114.034,-91 114.034,-91 108.034,-91 102.034,-85 102.034,-79 102.034,-79 102.034,-13 102.034,-13 102.034,-7 108.034,-1 114.034,-1"/>
<text text-anchor="middle" x="201" y="-75.8" font-family="Times,serif" font-size="14.00">ApplicationController</text>
<polyline fill="none" stroke="black" points="102.034,-69 299.966,-69 "/>
<polyline fill="none" stroke="black" points="102.034,-45 299.966,-45 "/>
<text text-anchor="start" x="110.034" y="-29.8" font-family="Times,serif" font-size="14.00">configure_permitted_parameters</text>
<polyline fill="none" stroke="black" points="102.034,-23 299.966,-23 "/>
<text text-anchor="start" x="110.034" y="-7.8" font-family="Times,serif" font-size="14.00">_layout</text>
</g>
<!-- HomeController -->
<g id="node3" class="node"><title>HomeController</title>
<path fill="none" stroke="black" d="M131.121,-120C131.121,-120 214.879,-120 214.879,-120 220.879,-120 226.879,-126 226.879,-132 226.879,-132 226.879,-226 226.879,-226 226.879,-232 220.879,-238 214.879,-238 214.879,-238 131.121,-238 131.121,-238 125.121,-238 119.121,-232 119.121,-226 119.121,-226 119.121,-132 119.121,-132 119.121,-126 125.121,-120 131.121,-120"/>
<text text-anchor="middle" x="173" y="-222.8" font-family="Times,serif" font-size="14.00">HomeController</text>
<polyline fill="none" stroke="black" points="119.121,-216 226.879,-216 "/>
<text text-anchor="start" x="127.121" y="-200.8" font-family="Times,serif" font-size="14.00">contact</text>
<text text-anchor="start" x="127.121" y="-186.8" font-family="Times,serif" font-size="14.00">index</text>
<text text-anchor="start" x="127.121" y="-172.8" font-family="Times,serif" font-size="14.00">user_dashboard</text>
<polyline fill="none" stroke="black" points="119.121,-166 226.879,-166 "/>
<polyline fill="none" stroke="black" points="119.121,-142 226.879,-142 "/>
<text text-anchor="start" x="127.121" y="-126.8" font-family="Times,serif" font-size="14.00">_layout</text>
</g>
<!-- PropertiesController -->
<g id="node4" class="node"><title>PropertiesController</title>
<path fill="none" stroke="black" d="M-56.1553,135C-56.1553,135 50.1553,135 50.1553,135 56.1553,135 62.1553,129 62.1553,123 62.1553,123 62.1553,-125 62.1553,-125 62.1553,-131 56.1553,-137 50.1553,-137 50.1553,-137 -56.1553,-137 -56.1553,-137 -62.1553,-137 -68.1553,-131 -68.1553,-125 -68.1553,-125 -68.1553,123 -68.1553,123 -68.1553,129 -62.1553,135 -56.1553,135"/>
<text text-anchor="middle" x="-3" y="-121.8" font-family="Times,serif" font-size="14.00">PropertiesController</text>
<polyline fill="none" stroke="black" points="-68.1553,-115 62.1553,-115 "/>
<text text-anchor="start" x="-60.1553" y="-99.8" font-family="Times,serif" font-size="14.00">bid</text>
<text text-anchor="start" x="-60.1553" y="-85.8" font-family="Times,serif" font-size="14.00">create</text>
<text text-anchor="start" x="-60.1553" y="-71.8" font-family="Times,serif" font-size="14.00">destroy</text>
<text text-anchor="start" x="-60.1553" y="-57.8" font-family="Times,serif" font-size="14.00">edit</text>
<text text-anchor="start" x="-60.1553" y="-43.8" font-family="Times,serif" font-size="14.00">index</text>
<text text-anchor="start" x="-60.1553" y="-29.8" font-family="Times,serif" font-size="14.00">my_properties</text>
<text text-anchor="start" x="-60.1553" y="-15.8" font-family="Times,serif" font-size="14.00">new</text>
<text text-anchor="start" x="-60.1553" y="-1.8" font-family="Times,serif" font-size="14.00">search</text>
<text text-anchor="start" x="-60.1553" y="12.2" font-family="Times,serif" font-size="14.00">search_results</text>
<text text-anchor="start" x="-60.1553" y="26.2" font-family="Times,serif" font-size="14.00">show</text>
<text text-anchor="start" x="-60.1553" y="40.2" font-family="Times,serif" font-size="14.00">sold</text>
<text text-anchor="start" x="-60.1553" y="54.2" font-family="Times,serif" font-size="14.00">update</text>
<polyline fill="none" stroke="black" points="-68.1553,61 62.1553,61 "/>
<polyline fill="none" stroke="black" points="-68.1553,85 62.1553,85 "/>
<text text-anchor="start" x="-60.1553" y="100.2" font-family="Times,serif" font-size="14.00">_layout</text>
<text text-anchor="start" x="-60.1553" y="114.2" font-family="Times,serif" font-size="14.00">property_params</text>
<text text-anchor="start" x="-60.1553" y="128.2" font-family="Times,serif" font-size="14.00">set_property</text>
</g>
</g>
</svg>
