<?xml version="1.0" encoding="UTF-8" standalone="no"?>
<!DOCTYPE svg PUBLIC "-//W3C//DTD SVG 1.1//EN"
 "http://www.w3.org/Graphics/SVG/1.1/DTD/svg11.dtd">
<!-- Generated by graphviz version 2.38.0 (20140413.2041)
 -->
<!-- Title: models_diagram Pages: 1 -->
<svg width="819pt" height="817pt"
 viewBox="0.00 0.00 819.19 817.00" xmlns="http://www.w3.org/2000/svg" xmlns:xlink="http://www.w3.org/1999/xlink">
<g id="graph0" class="graph" transform="scale(1 1) rotate(0) translate(4 813)">
<title>models_diagram</title>
<polygon fill="white" stroke="none" points="-4,4 -4,-813 815.193,-813 815.193,4 -4,4"/>
<!-- _diagram_info -->
<g id="node1" class="node"><title>_diagram_info</title>
<text text-anchor="start" x="8" y="-647.6" font-family="Times,serif" font-size="13.00">Models diagram</text>
<text text-anchor="start" x="8" y="-634.6" font-family="Times,serif" font-size="13.00">Date: Apr 07 2015 &#45; 12:33</text>
<text text-anchor="start" x="8" y="-621.6" font-family="Times,serif" font-size="13.00">Migration version: 20150407071606</text>
<text text-anchor="start" x="8" y="-608.6" font-family="Times,serif" font-size="13.00">Generated by RailRoady 1.3.0</text>
<text text-anchor="start" x="8" y="-595.6" font-family="Times,serif" font-size="13.00">http://railroady.prestonlee.com</text>
</g>
<!-- Area -->
<g id="node2" class="node"><title>Area</title>
<path fill="none" stroke="black" d="M237.182,-575.5C237.182,-575.5 346.193,-575.5 346.193,-575.5 352.193,-575.5 358.193,-581.5 358.193,-587.5 358.193,-587.5 358.193,-663.5 358.193,-663.5 358.193,-669.5 352.193,-675.5 346.193,-675.5 346.193,-675.5 237.182,-675.5 237.182,-675.5 231.182,-675.5 225.182,-669.5 225.182,-663.5 225.182,-663.5 225.182,-587.5 225.182,-587.5 225.182,-581.5 231.182,-575.5 237.182,-575.5"/>
<text text-anchor="middle" x="291.688" y="-660.3" font-family="Times,serif" font-size="14.00">Area</text>
<polyline fill="none" stroke="black" points="225.182,-653.5 358.193,-653.5 "/>
<text text-anchor="start" x="233.182" y="-638.3" font-family="Times,serif" font-size="14.00">id :integer</text>
<text text-anchor="start" x="233.182" y="-624.3" font-family="Times,serif" font-size="14.00">name :string</text>
<text text-anchor="start" x="233.182" y="-610.3" font-family="Times,serif" font-size="14.00">city :string</text>
<text text-anchor="start" x="233.182" y="-596.3" font-family="Times,serif" font-size="14.00">created_at :datetime</text>
<text text-anchor="start" x="233.182" y="-582.3" font-family="Times,serif" font-size="14.00">updated_at :datetime</text>
</g>
<!-- City -->
<g id="node3" class="node"><title>City</title>
<path fill="none" stroke="black" d="M388.182,-575.5C388.182,-575.5 497.193,-575.5 497.193,-575.5 503.193,-575.5 509.193,-581.5 509.193,-587.5 509.193,-587.5 509.193,-663.5 509.193,-663.5 509.193,-669.5 503.193,-675.5 497.193,-675.5 497.193,-675.5 388.182,-675.5 388.182,-675.5 382.182,-675.5 376.182,-669.5 376.182,-663.5 376.182,-663.5 376.182,-587.5 376.182,-587.5 376.182,-581.5 382.182,-575.5 388.182,-575.5"/>
<text text-anchor="middle" x="442.688" y="-660.3" font-family="Times,serif" font-size="14.00">City</text>
<polyline fill="none" stroke="black" points="376.182,-653.5 509.193,-653.5 "/>
<text text-anchor="start" x="384.182" y="-638.3" font-family="Times,serif" font-size="14.00">id :integer</text>
<text text-anchor="start" x="384.182" y="-624.3" font-family="Times,serif" font-size="14.00">name :string</text>
<text text-anchor="start" x="384.182" y="-610.3" font-family="Times,serif" font-size="14.00">province :string</text>
<text text-anchor="start" x="384.182" y="-596.3" font-family="Times,serif" font-size="14.00">created_at :datetime</text>
<text text-anchor="start" x="384.182" y="-582.3" font-family="Times,serif" font-size="14.00">updated_at :datetime</text>
</g>
<!-- Property -->
<g id="node4" class="node"><title>Property</title>
<path fill="none" stroke="black" d="M538.782,-442.5C538.782,-442.5 648.593,-442.5 648.593,-442.5 654.593,-442.5 660.593,-448.5 660.593,-454.5 660.593,-454.5 660.593,-796.5 660.593,-796.5 660.593,-802.5 654.593,-808.5 648.593,-808.5 648.593,-808.5 538.782,-808.5 538.782,-808.5 532.782,-808.5 526.782,-802.5 526.782,-796.5 526.782,-796.5 526.782,-454.5 526.782,-454.5 526.782,-448.5 532.782,-442.5 538.782,-442.5"/>
<text text-anchor="middle" x="593.688" y="-793.3" font-family="Times,serif" font-size="14.00">Property</text>
<polyline fill="none" stroke="black" points="526.782,-786.5 660.593,-786.5 "/>
<text text-anchor="start" x="534.782" y="-771.3" font-family="Times,serif" font-size="14.00">id :integer</text>
<text text-anchor="start" x="534.782" y="-757.3" font-family="Times,serif" font-size="14.00">title :string</text>
<text text-anchor="start" x="534.782" y="-743.3" font-family="Times,serif" font-size="14.00">description :string</text>
<text text-anchor="start" x="534.782" y="-729.3" font-family="Times,serif" font-size="14.00">area :string</text>
<text text-anchor="start" x="534.782" y="-715.3" font-family="Times,serif" font-size="14.00">postal_code :string</text>
<text text-anchor="start" x="534.782" y="-701.3" font-family="Times,serif" font-size="14.00">city :string</text>
<text text-anchor="start" x="534.782" y="-687.3" font-family="Times,serif" font-size="14.00">province :string</text>
<text text-anchor="start" x="534.782" y="-673.3" font-family="Times,serif" font-size="14.00">created_at :datetime</text>
<text text-anchor="start" x="534.782" y="-659.3" font-family="Times,serif" font-size="14.00">updated_at :datetime</text>
<text text-anchor="start" x="534.782" y="-645.3" font-family="Times,serif" font-size="14.00">image :string</text>
<text text-anchor="start" x="534.782" y="-631.3" font-family="Times,serif" font-size="14.00">user_id :integer</text>
<text text-anchor="start" x="534.782" y="-617.3" font-family="Times,serif" font-size="14.00">status :string</text>
<text text-anchor="start" x="534.782" y="-603.3" font-family="Times,serif" font-size="14.00">approved :boolean</text>
<text text-anchor="start" x="534.782" y="-589.3" font-family="Times,serif" font-size="14.00">sold_flag :boolean</text>
<text text-anchor="start" x="534.782" y="-575.3" font-family="Times,serif" font-size="14.00">facilities :string</text>
<text text-anchor="start" x="534.782" y="-561.3" font-family="Times,serif" font-size="14.00">image2 :string</text>
<text text-anchor="start" x="534.782" y="-547.3" font-family="Times,serif" font-size="14.00">image3 :string</text>
<text text-anchor="start" x="534.782" y="-533.3" font-family="Times,serif" font-size="14.00">image4 :string</text>
<text text-anchor="start" x="534.782" y="-519.3" font-family="Times,serif" font-size="14.00">property_type :string</text>
<text text-anchor="start" x="534.782" y="-505.3" font-family="Times,serif" font-size="14.00">size :string</text>
<text text-anchor="start" x="534.782" y="-491.3" font-family="Times,serif" font-size="14.00">price_min :integer</text>
<text text-anchor="start" x="534.782" y="-477.3" font-family="Times,serif" font-size="14.00">price_max :integer</text>
<text text-anchor="start" x="534.782" y="-463.3" font-family="Times,serif" font-size="14.00">age :integer</text>
<text text-anchor="start" x="534.782" y="-449.3" font-family="Times,serif" font-size="14.00">sold_at :datetime</text>
</g>
<!-- PropertyBid -->
<g id="node5" class="node"><title>PropertyBid</title>
<path fill="none" stroke="black" d="M539.182,-0.5C539.182,-0.5 648.193,-0.5 648.193,-0.5 654.193,-0.5 660.193,-6.5 660.193,-12.5 660.193,-12.5 660.193,-116.5 660.193,-116.5 660.193,-122.5 654.193,-128.5 648.193,-128.5 648.193,-128.5 539.182,-128.5 539.182,-128.5 533.182,-128.5 527.182,-122.5 527.182,-116.5 527.182,-116.5 527.182,-12.5 527.182,-12.5 527.182,-6.5 533.182,-0.5 539.182,-0.5"/>
<text text-anchor="middle" x="593.688" y="-113.3" font-family="Times,serif" font-size="14.00">PropertyBid</text>
<polyline fill="none" stroke="black" points="527.182,-106.5 660.193,-106.5 "/>
<text text-anchor="start" x="535.182" y="-91.3" font-family="Times,serif" font-size="14.00">id :integer</text>
<text text-anchor="start" x="535.182" y="-77.3" font-family="Times,serif" font-size="14.00">property_id :integer</text>
<text text-anchor="start" x="535.182" y="-63.3" font-family="Times,serif" font-size="14.00">user_id :integer</text>
<text text-anchor="start" x="535.182" y="-49.3" font-family="Times,serif" font-size="14.00">bid :decimal</text>
<text text-anchor="start" x="535.182" y="-35.3" font-family="Times,serif" font-size="14.00">created_at :datetime</text>
<text text-anchor="start" x="535.182" y="-21.3" font-family="Times,serif" font-size="14.00">updated_at :datetime</text>
<text text-anchor="start" x="535.182" y="-7.3" font-family="Times,serif" font-size="14.00">active :boolean</text>
</g>
<!-- Property&#45;&gt;PropertyBid -->
<g id="edge1" class="edge"><title>Property&#45;&gt;PropertyBid</title>
<path fill="none" stroke="#423953" d="M547.961,-434.353C534.75,-350.99 528.457,-252.422 547.688,-165 549.654,-156.06 552.506,-146.966 555.841,-138.092"/>
<ellipse fill="none" stroke="#423953" cx="548.621" cy="-438.424" rx="4.00001" ry="4.00001"/>
<polygon fill="#423953" stroke="#423953" points="555.933,-137.86 563.811,-130.231 557.781,-133.214 559.63,-128.568 559.63,-128.568 559.63,-128.568 557.781,-133.214 555.448,-126.904 555.933,-137.86 555.933,-137.86"/>
</g>
<!-- User -->
<g id="node7" class="node"><title>User</title>
<path fill="none" stroke="black" d="M568.41,-165.5C568.41,-165.5 748.966,-165.5 748.966,-165.5 754.966,-165.5 760.966,-171.5 760.966,-177.5 760.966,-177.5 760.966,-393.5 760.966,-393.5 760.966,-399.5 754.966,-405.5 748.966,-405.5 748.966,-405.5 568.41,-405.5 568.41,-405.5 562.41,-405.5 556.41,-399.5 556.41,-393.5 556.41,-393.5 556.41,-177.5 556.41,-177.5 556.41,-171.5 562.41,-165.5 568.41,-165.5"/>
<text text-anchor="middle" x="658.688" y="-390.3" font-family="Times,serif" font-size="14.00">User</text>
<polyline fill="none" stroke="black" points="556.41,-383.5 760.966,-383.5 "/>
<text text-anchor="start" x="564.41" y="-368.3" font-family="Times,serif" font-size="14.00">id :integer</text>
<text text-anchor="start" x="564.41" y="-354.3" font-family="Times,serif" font-size="14.00">username :string</text>
<text text-anchor="start" x="564.41" y="-340.3" font-family="Times,serif" font-size="14.00">email :string</text>
<text text-anchor="start" x="564.41" y="-326.3" font-family="Times,serif" font-size="14.00">encrypted_password :string</text>
<text text-anchor="start" x="564.41" y="-312.3" font-family="Times,serif" font-size="14.00">reset_password_token :string</text>
<text text-anchor="start" x="564.41" y="-298.3" font-family="Times,serif" font-size="14.00">reset_password_sent_at :datetime</text>
<text text-anchor="start" x="564.41" y="-284.3" font-family="Times,serif" font-size="14.00">remember_created_at :datetime</text>
<text text-anchor="start" x="564.41" y="-270.3" font-family="Times,serif" font-size="14.00">sign_in_count :integer</text>
<text text-anchor="start" x="564.41" y="-256.3" font-family="Times,serif" font-size="14.00">current_sign_in_at :datetime</text>
<text text-anchor="start" x="564.41" y="-242.3" font-family="Times,serif" font-size="14.00">last_sign_in_at :datetime</text>
<text text-anchor="start" x="564.41" y="-228.3" font-family="Times,serif" font-size="14.00">current_sign_in_ip :string</text>
<text text-anchor="start" x="564.41" y="-214.3" font-family="Times,serif" font-size="14.00">last_sign_in_ip :string</text>
<text text-anchor="start" x="564.41" y="-200.3" font-family="Times,serif" font-size="14.00">created_at :datetime</text>
<text text-anchor="start" x="564.41" y="-186.3" font-family="Times,serif" font-size="14.00">updated_at :datetime</text>
<text text-anchor="start" x="564.41" y="-172.3" font-family="Times,serif" font-size="14.00">role :string</text>
</g>
<!-- Property&#45;&gt;User -->
<g id="edge2" class="edge"><title>Property&#45;&gt;User</title>
<path fill="none" stroke="#f1b4c1" d="M630.694,-432.068C631.736,-426.647 632.773,-421.258 633.798,-415.926"/>
<polygon fill="#f1b4c1" stroke="#f1b4c1" points="630.645,-432.324 624.337,-441.294 629.7,-437.234 628.756,-442.144 628.756,-442.144 628.756,-442.144 629.7,-437.234 633.175,-442.994 630.645,-432.324 630.645,-432.324"/>
<polygon fill="#f1b4c1" stroke="#f1b4c1" points="633.867,-415.565 640.175,-406.595 634.812,-410.655 635.756,-405.745 635.756,-405.745 635.756,-405.745 634.812,-410.655 631.337,-404.895 633.867,-415.565 633.867,-415.565"/>
</g>
<!-- Province -->
<g id="node6" class="node"><title>Province</title>
<path fill="none" stroke="black" d="M690.182,-582.5C690.182,-582.5 799.193,-582.5 799.193,-582.5 805.193,-582.5 811.193,-588.5 811.193,-594.5 811.193,-594.5 811.193,-656.5 811.193,-656.5 811.193,-662.5 805.193,-668.5 799.193,-668.5 799.193,-668.5 690.182,-668.5 690.182,-668.5 684.182,-668.5 678.182,-662.5 678.182,-656.5 678.182,-656.5 678.182,-594.5 678.182,-594.5 678.182,-588.5 684.182,-582.5 690.182,-582.5"/>
<text text-anchor="middle" x="744.688" y="-653.3" font-family="Times,serif" font-size="14.00">Province</text>
<polyline fill="none" stroke="black" points="678.182,-646.5 811.193,-646.5 "/>
<text text-anchor="start" x="686.182" y="-631.3" font-family="Times,serif" font-size="14.00">id :integer</text>
<text text-anchor="start" x="686.182" y="-617.3" font-family="Times,serif" font-size="14.00">name :string</text>
<text text-anchor="start" x="686.182" y="-603.3" font-family="Times,serif" font-size="14.00">created_at :datetime</text>
<text text-anchor="start" x="686.182" y="-589.3" font-family="Times,serif" font-size="14.00">updated_at :datetime</text>
</g>
<!-- User&#45;&gt;PropertyBid -->
<g id="edge3" class="edge"><title>User&#45;&gt;PropertyBid</title>
<path fill="none" stroke="#7b02be" d="M621.056,-157.711C619.11,-151.152 617.188,-144.678 615.321,-138.386"/>
<ellipse fill="none" stroke="#7b02be" cx="622.196" cy="-161.552" rx="4.00001" ry="4.00001"/>
<polygon fill="#7b02be" stroke="#7b02be" points="615.28,-138.249 616.749,-127.382 613.857,-133.456 612.435,-128.662 612.435,-128.662 612.435,-128.662 613.857,-133.456 608.121,-129.943 615.28,-138.249 615.28,-138.249"/>
</g>
</g>
</svg>
