<?xml version="1.0" encoding="UTF-8" standalone="no"?>
<!DOCTYPE svg PUBLIC "-//W3C//DTD SVG 1.1//EN"
 "http://www.w3.org/Graphics/SVG/1.1/DTD/svg11.dtd">
<!-- Generated by graphviz version 2.38.0 (20140413.2041)
 -->
<!-- Title: models_diagram Pages: 1 -->
<svg width="468pt" height="817pt"
 viewBox="0.00 0.00 467.97 817.00" xmlns="http://www.w3.org/2000/svg" xmlns:xlink="http://www.w3.org/1999/xlink">
<g id="graph0" class="graph" transform="scale(1 1) rotate(0) translate(4 813)">
<title>models_diagram</title>
<polygon fill="white" stroke="none" points="-4,4 -4,-813 463.966,-813 463.966,4 -4,4"/>
<!-- _diagram_info -->
<g id="node1" class="node"><title>_diagram_info</title>
<text text-anchor="start" x="8" y="-647.6" font-family="Times,serif" font-size="13.00">Models diagram</text>
<text text-anchor="start" x="8" y="-634.6" font-family="Times,serif" font-size="13.00">Date: Apr 05 2015 &#45; 22:06</text>
<text text-anchor="start" x="8" y="-621.6" font-family="Times,serif" font-size="13.00">Migration version: 20150405104538</text>
<text text-anchor="start" x="8" y="-608.6" font-family="Times,serif" font-size="13.00">Generated by RailRoady 1.3.0</text>
<text text-anchor="start" x="8" y="-595.6" font-family="Times,serif" font-size="13.00">http://railroady.prestonlee.com</text>
</g>
<!-- Property -->
<g id="node2" class="node"><title>Property</title>
<path fill="none" stroke="black" d="M237.782,-442.5C237.782,-442.5 347.593,-442.5 347.593,-442.5 353.593,-442.5 359.593,-448.5 359.593,-454.5 359.593,-454.5 359.593,-796.5 359.593,-796.5 359.593,-802.5 353.593,-808.5 347.593,-808.5 347.593,-808.5 237.782,-808.5 237.782,-808.5 231.782,-808.5 225.782,-802.5 225.782,-796.5 225.782,-796.5 225.782,-454.5 225.782,-454.5 225.782,-448.5 231.782,-442.5 237.782,-442.5"/>
<text text-anchor="middle" x="292.688" y="-793.3" font-family="Times,serif" font-size="14.00">Property</text>
<polyline fill="none" stroke="black" points="225.782,-786.5 359.593,-786.5 "/>
<text text-anchor="start" x="233.782" y="-771.3" font-family="Times,serif" font-size="14.00">id :integer</text>
<text text-anchor="start" x="233.782" y="-757.3" font-family="Times,serif" font-size="14.00">title :string</text>
<text text-anchor="start" x="233.782" y="-743.3" font-family="Times,serif" font-size="14.00">description :string</text>
<text text-anchor="start" x="233.782" y="-729.3" font-family="Times,serif" font-size="14.00">area :string</text>
<text text-anchor="start" x="233.782" y="-715.3" font-family="Times,serif" font-size="14.00">postal_code :string</text>
<text text-anchor="start" x="233.782" y="-701.3" font-family="Times,serif" font-size="14.00">city :string</text>
<text text-anchor="start" x="233.782" y="-687.3" font-family="Times,serif" font-size="14.00">province :string</text>
<text text-anchor="start" x="233.782" y="-673.3" font-family="Times,serif" font-size="14.00">created_at :datetime</text>
<text text-anchor="start" x="233.782" y="-659.3" font-family="Times,serif" font-size="14.00">updated_at :datetime</text>
<text text-anchor="start" x="233.782" y="-645.3" font-family="Times,serif" font-size="14.00">image :string</text>
<text text-anchor="start" x="233.782" y="-631.3" font-family="Times,serif" font-size="14.00">user_id :integer</text>
<text text-anchor="start" x="233.782" y="-617.3" font-family="Times,serif" font-size="14.00">status :string</text>
<text text-anchor="start" x="233.782" y="-603.3" font-family="Times,serif" font-size="14.00">approved :boolean</text>
<text text-anchor="start" x="233.782" y="-589.3" font-family="Times,serif" font-size="14.00">sold_flag :boolean</text>
<text text-anchor="start" x="233.782" y="-575.3" font-family="Times,serif" font-size="14.00">facilities :string</text>
<text text-anchor="start" x="233.782" y="-561.3" font-family="Times,serif" font-size="14.00">image2 :string</text>
<text text-anchor="start" x="233.782" y="-547.3" font-family="Times,serif" font-size="14.00">image3 :string</text>
<text text-anchor="start" x="233.782" y="-533.3" font-family="Times,serif" font-size="14.00">image4 :string</text>
<text text-anchor="start" x="233.782" y="-519.3" font-family="Times,serif" font-size="14.00">property_type :string</text>
<text text-anchor="start" x="233.782" y="-505.3" font-family="Times,serif" font-size="14.00">size :string</text>
<text text-anchor="start" x="233.782" y="-491.3" font-family="Times,serif" font-size="14.00">price_min :integer</text>
<text text-anchor="start" x="233.782" y="-477.3" font-family="Times,serif" font-size="14.00">price_max :integer</text>
<text text-anchor="start" x="233.782" y="-463.3" font-family="Times,serif" font-size="14.00">age :integer</text>
<text text-anchor="start" x="233.782" y="-449.3" font-family="Times,serif" font-size="14.00">sold_at :datetime</text>
</g>
<!-- PropertyBid -->
<g id="node3" class="node"><title>PropertyBid</title>
<path fill="none" stroke="black" d="M238.182,-0.5C238.182,-0.5 347.193,-0.5 347.193,-0.5 353.193,-0.5 359.193,-6.5 359.193,-12.5 359.193,-12.5 359.193,-116.5 359.193,-116.5 359.193,-122.5 353.193,-128.5 347.193,-128.5 347.193,-128.5 238.182,-128.5 238.182,-128.5 232.182,-128.5 226.182,-122.5 226.182,-116.5 226.182,-116.5 226.182,-12.5 226.182,-12.5 226.182,-6.5 232.182,-0.5 238.182,-0.5"/>
<text text-anchor="middle" x="292.688" y="-113.3" font-family="Times,serif" font-size="14.00">PropertyBid</text>
<polyline fill="none" stroke="black" points="226.182,-106.5 359.193,-106.5 "/>
<text text-anchor="start" x="234.182" y="-91.3" font-family="Times,serif" font-size="14.00">id :integer</text>
<text text-anchor="start" x="234.182" y="-77.3" font-family="Times,serif" font-size="14.00">property_id :integer</text>
<text text-anchor="start" x="234.182" y="-63.3" font-family="Times,serif" font-size="14.00">user_id :integer</text>
<text text-anchor="start" x="234.182" y="-49.3" font-family="Times,serif" font-size="14.00">bid :decimal</text>
<text text-anchor="start" x="234.182" y="-35.3" font-family="Times,serif" font-size="14.00">created_at :datetime</text>
<text text-anchor="start" x="234.182" y="-21.3" font-family="Times,serif" font-size="14.00">updated_at :datetime</text>
<text text-anchor="start" x="234.182" y="-7.3" font-family="Times,serif" font-size="14.00">active :boolean</text>
</g>
<!-- Property&#45;&gt;PropertyBid -->
<g id="edge1" class="edge"><title>Property&#45;&gt;PropertyBid</title>
<path fill="none" stroke="#cc8ab2" d="M246.961,-434.353C233.75,-350.99 227.457,-252.422 246.688,-165 248.654,-156.06 251.506,-146.966 254.841,-138.092"/>
<ellipse fill="none" stroke="#cc8ab2" cx="247.621" cy="-438.424" rx="4.00001" ry="4.00001"/>
<polygon fill="#cc8ab2" stroke="#cc8ab2" points="254.933,-137.86 262.811,-130.231 256.781,-133.214 258.63,-128.568 258.63,-128.568 258.63,-128.568 256.781,-133.214 254.448,-126.904 254.933,-137.86 254.933,-137.86"/>
</g>
<!-- User -->
<g id="node4" class="node"><title>User</title>
<path fill="none" stroke="black" d="M267.41,-165.5C267.41,-165.5 447.966,-165.5 447.966,-165.5 453.966,-165.5 459.966,-171.5 459.966,-177.5 459.966,-177.5 459.966,-393.5 459.966,-393.5 459.966,-399.5 453.966,-405.5 447.966,-405.5 447.966,-405.5 267.41,-405.5 267.41,-405.5 261.41,-405.5 255.41,-399.5 255.41,-393.5 255.41,-393.5 255.41,-177.5 255.41,-177.5 255.41,-171.5 261.41,-165.5 267.41,-165.5"/>
<text text-anchor="middle" x="357.688" y="-390.3" font-family="Times,serif" font-size="14.00">User</text>
<polyline fill="none" stroke="black" points="255.41,-383.5 459.966,-383.5 "/>
<text text-anchor="start" x="263.41" y="-368.3" font-family="Times,serif" font-size="14.00">id :integer</text>
<text text-anchor="start" x="263.41" y="-354.3" font-family="Times,serif" font-size="14.00">username :string</text>
<text text-anchor="start" x="263.41" y="-340.3" font-family="Times,serif" font-size="14.00">email :string</text>
<text text-anchor="start" x="263.41" y="-326.3" font-family="Times,serif" font-size="14.00">encrypted_password :string</text>
<text text-anchor="start" x="263.41" y="-312.3" font-family="Times,serif" font-size="14.00">reset_password_token :string</text>
<text text-anchor="start" x="263.41" y="-298.3" font-family="Times,serif" font-size="14.00">reset_password_sent_at :datetime</text>
<text text-anchor="start" x="263.41" y="-284.3" font-family="Times,serif" font-size="14.00">remember_created_at :datetime</text>
<text text-anchor="start" x="263.41" y="-270.3" font-family="Times,serif" font-size="14.00">sign_in_count :integer</text>
<text text-anchor="start" x="263.41" y="-256.3" font-family="Times,serif" font-size="14.00">current_sign_in_at :datetime</text>
<text text-anchor="start" x="263.41" y="-242.3" font-family="Times,serif" font-size="14.00">last_sign_in_at :datetime</text>
<text text-anchor="start" x="263.41" y="-228.3" font-family="Times,serif" font-size="14.00">current_sign_in_ip :string</text>
<text text-anchor="start" x="263.41" y="-214.3" font-family="Times,serif" font-size="14.00">last_sign_in_ip :string</text>
<text text-anchor="start" x="263.41" y="-200.3" font-family="Times,serif" font-size="14.00">created_at :datetime</text>
<text text-anchor="start" x="263.41" y="-186.3" font-family="Times,serif" font-size="14.00">updated_at :datetime</text>
<text text-anchor="start" x="263.41" y="-172.3" font-family="Times,serif" font-size="14.00">role :string</text>
</g>
<!-- Property&#45;&gt;User -->
<g id="edge2" class="edge"><title>Property&#45;&gt;User</title>
<path fill="none" stroke="#80d1f8" d="M329.694,-432.068C330.736,-426.647 331.773,-421.258 332.798,-415.926"/>
<polygon fill="#80d1f8" stroke="#80d1f8" points="329.645,-432.324 323.337,-441.294 328.7,-437.234 327.756,-442.144 327.756,-442.144 327.756,-442.144 328.7,-437.234 332.175,-442.994 329.645,-432.324 329.645,-432.324"/>
<polygon fill="#80d1f8" stroke="#80d1f8" points="332.867,-415.565 339.175,-406.595 333.812,-410.655 334.756,-405.745 334.756,-405.745 334.756,-405.745 333.812,-410.655 330.337,-404.895 332.867,-415.565 332.867,-415.565"/>
</g>
<!-- User&#45;&gt;PropertyBid -->
<g id="edge3" class="edge"><title>User&#45;&gt;PropertyBid</title>
<path fill="none" stroke="#735d44" d="M320.056,-157.711C318.11,-151.152 316.188,-144.678 314.321,-138.386"/>
<ellipse fill="none" stroke="#735d44" cx="321.196" cy="-161.552" rx="4.00001" ry="4.00001"/>
<polygon fill="#735d44" stroke="#735d44" points="314.28,-138.249 315.749,-127.382 312.857,-133.456 311.435,-128.662 311.435,-128.662 311.435,-128.662 312.857,-133.456 307.121,-129.943 314.28,-138.249 314.28,-138.249"/>
</g>
</g>
</svg>
