<?xml version="1.0" encoding="UTF-8" standalone="no"?>
<!DOCTYPE svg PUBLIC "-//W3C//DTD SVG 1.1//EN"
 "http://www.w3.org/Graphics/SVG/1.1/DTD/svg11.dtd">
<!-- Generated by graphviz version 2.38.0 (20140413.2041)
 -->
<!-- Title: models_diagram Pages: 1 -->
<svg width="560pt" height="225pt"
 viewBox="0.00 0.00 560.23 225.00" xmlns="http://www.w3.org/2000/svg" xmlns:xlink="http://www.w3.org/1999/xlink">
<g id="graph0" class="graph" transform="scale(1 1) rotate(0) translate(4 221)">
<title>models_diagram</title>
<polygon fill="white" stroke="none" points="-4,4 -4,-221 556.23,-221 556.23,4 -4,4"/>
<!-- _diagram_info -->
<g id="node1" class="node"><title>_diagram_info</title>
<text text-anchor="start" x="8" y="-202.6" font-family="Times,serif" font-size="13.00">Models diagram</text>
<text text-anchor="start" x="8" y="-189.6" font-family="Times,serif" font-size="13.00">Date: Apr 07 2015 &#45; 12:33</text>
<text text-anchor="start" x="8" y="-176.6" font-family="Times,serif" font-size="13.00">Migration version: 20150407071606</text>
<text text-anchor="start" x="8" y="-163.6" font-family="Times,serif" font-size="13.00">Generated by RailRoady 1.3.0</text>
<text text-anchor="start" x="8" y="-150.6" font-family="Times,serif" font-size="13.00">http://railroady.prestonlee.com</text>
</g>
<!-- Area -->
<g id="node2" class="node"><title>Area</title>
<ellipse fill="none" stroke="black" cx="252.688" cy="-180.5" rx="27.0787" ry="18"/>
<text text-anchor="middle" x="252.688" y="-176.3" font-family="Times,serif" font-size="14.00">Area</text>
</g>
<!-- City -->
<g id="node3" class="node"><title>City</title>
<ellipse fill="none" stroke="black" cx="324.688" cy="-180.5" rx="27" ry="18"/>
<text text-anchor="middle" x="324.688" y="-176.3" font-family="Times,serif" font-size="14.00">City</text>
</g>
<!-- Property -->
<g id="node4" class="node"><title>Property</title>
<ellipse fill="none" stroke="black" cx="410.688" cy="-180.5" rx="40.6248" ry="18"/>
<text text-anchor="middle" x="410.688" y="-176.3" font-family="Times,serif" font-size="14.00">Property</text>
</g>
<!-- PropertyBid -->
<g id="node5" class="node"><title>PropertyBid</title>
<ellipse fill="none" stroke="black" cx="409.688" cy="-18" rx="53.1797" ry="18"/>
<text text-anchor="middle" x="409.688" y="-13.8" font-family="Times,serif" font-size="14.00">PropertyBid</text>
</g>
<!-- Property&#45;&gt;PropertyBid -->
<g id="edge1" class="edge"><title>Property&#45;&gt;PropertyBid</title>
<path fill="none" stroke="#c30a2f" d="M406.317,-154.297C403.081,-132.518 399.572,-100.193 401.688,-72 402.324,-63.5179 403.526,-54.3361 404.809,-46.0356"/>
<ellipse fill="none" stroke="#c30a2f" cx="406.961" cy="-158.426" rx="4.00001" ry="4.00001"/>
<polygon fill="#c30a2f" stroke="#c30a2f" points="404.818,-45.9796 410.88,-36.8417 405.629,-41.0458 406.439,-36.1119 406.439,-36.1119 406.439,-36.1119 405.629,-41.0458 401.999,-35.3822 404.818,-45.9796 404.818,-45.9796"/>
</g>
<!-- User -->
<g id="node7" class="node"><title>User</title>
<ellipse fill="none" stroke="black" cx="437.688" cy="-90" rx="27" ry="18"/>
<text text-anchor="middle" x="437.688" y="-85.8" font-family="Times,serif" font-size="14.00">User</text>
</g>
<!-- Property&#45;&gt;User -->
<g id="edge2" class="edge"><title>Property&#45;&gt;User</title>
<path fill="none" stroke="#126f72" d="M418.812,-152.871C422.239,-141.637 426.219,-128.591 429.639,-117.383"/>
<polygon fill="#126f72" stroke="#126f72" points="418.812,-152.872 411.589,-161.123 417.353,-157.654 415.894,-162.436 415.894,-162.436 415.894,-162.436 417.353,-157.654 420.198,-163.749 418.812,-152.872 418.812,-152.872"/>
<polygon fill="#126f72" stroke="#126f72" points="429.671,-117.276 436.894,-109.024 431.13,-112.494 432.589,-107.711 432.589,-107.711 432.589,-107.711 431.13,-112.494 428.285,-106.398 429.671,-117.276 429.671,-117.276"/>
</g>
<!-- Province -->
<g id="node6" class="node"><title>Province</title>
<ellipse fill="none" stroke="black" cx="510.688" cy="-180.5" rx="41.5852" ry="18"/>
<text text-anchor="middle" x="510.688" y="-176.3" font-family="Times,serif" font-size="14.00">Province</text>
</g>
<!-- User&#45;&gt;PropertyBid -->
<g id="edge3" class="edge"><title>User&#45;&gt;PropertyBid</title>
<path fill="none" stroke="#5d5604" d="M427.999,-64.7779C425.505,-58.544 422.81,-51.8046 420.273,-45.4634"/>
<ellipse fill="none" stroke="#5d5604" cx="429.567" cy="-68.6971" rx="4.00001" ry="4.00001"/>
<polygon fill="#5d5604" stroke="#5d5604" points="420.184,-45.241 420.648,-34.2849 418.327,-40.5986 416.47,-35.9562 416.47,-35.9562 416.47,-35.9562 418.327,-40.5986 412.292,-37.6275 420.184,-45.241 420.184,-45.241"/>
</g>
</g>
</svg>
