<?xml version="1.0" encoding="UTF-8" standalone="no"?>
<!DOCTYPE svg PUBLIC "-//W3C//DTD SVG 1.1//EN"
 "http://www.w3.org/Graphics/SVG/1.1/DTD/svg11.dtd">
<!-- Generated by graphviz version 2.38.0 (20140413.2041)
 -->
<!-- Title: models_diagram Pages: 1 -->
<svg width="328pt" height="225pt"
 viewBox="0.00 0.00 327.69 225.00" xmlns="http://www.w3.org/2000/svg" xmlns:xlink="http://www.w3.org/1999/xlink">
<g id="graph0" class="graph" transform="scale(1 1) rotate(0) translate(4 221)">
<title>models_diagram</title>
<polygon fill="white" stroke="none" points="-4,4 -4,-221 323.688,-221 323.688,4 -4,4"/>
<!-- _diagram_info -->
<g id="node1" class="node"><title>_diagram_info</title>
<text text-anchor="start" x="8" y="-202.6" font-family="Times,serif" font-size="13.00">Models diagram</text>
<text text-anchor="start" x="8" y="-189.6" font-family="Times,serif" font-size="13.00">Date: Apr 05 2015 &#45; 22:06</text>
<text text-anchor="start" x="8" y="-176.6" font-family="Times,serif" font-size="13.00">Migration version: 20150405104538</text>
<text text-anchor="start" x="8" y="-163.6" font-family="Times,serif" font-size="13.00">Generated by RailRoady 1.3.0</text>
<text text-anchor="start" x="8" y="-150.6" font-family="Times,serif" font-size="13.00">http://railroady.prestonlee.com</text>
</g>
<!-- Property -->
<g id="node2" class="node"><title>Property</title>
<ellipse fill="none" stroke="black" cx="265.688" cy="-180.5" rx="40.6248" ry="18"/>
<text text-anchor="middle" x="265.688" y="-176.3" font-family="Times,serif" font-size="14.00">Property</text>
</g>
<!-- PropertyBid -->
<g id="node3" class="node"><title>PropertyBid</title>
<ellipse fill="none" stroke="black" cx="264.688" cy="-18" rx="53.1797" ry="18"/>
<text text-anchor="middle" x="264.688" y="-13.8" font-family="Times,serif" font-size="14.00">PropertyBid</text>
</g>
<!-- Property&#45;&gt;PropertyBid -->
<g id="edge1" class="edge"><title>Property&#45;&gt;PropertyBid</title>
<path fill="none" stroke="#27da07" d="M261.317,-154.297C258.081,-132.518 254.572,-100.193 256.688,-72 257.324,-63.5179 258.526,-54.3361 259.809,-46.0356"/>
<ellipse fill="none" stroke="#27da07" cx="261.961" cy="-158.426" rx="4.00001" ry="4.00001"/>
<polygon fill="#27da07" stroke="#27da07" points="259.818,-45.9796 265.88,-36.8417 260.629,-41.0458 261.439,-36.1119 261.439,-36.1119 261.439,-36.1119 260.629,-41.0458 256.999,-35.3822 259.818,-45.9796 259.818,-45.9796"/>
</g>
<!-- User -->
<g id="node4" class="node"><title>User</title>
<ellipse fill="none" stroke="black" cx="292.688" cy="-90" rx="27" ry="18"/>
<text text-anchor="middle" x="292.688" y="-85.8" font-family="Times,serif" font-size="14.00">User</text>
</g>
<!-- Property&#45;&gt;User -->
<g id="edge2" class="edge"><title>Property&#45;&gt;User</title>
<path fill="none" stroke="#ccac22" d="M273.812,-152.871C277.239,-141.637 281.219,-128.591 284.639,-117.383"/>
<polygon fill="#ccac22" stroke="#ccac22" points="273.812,-152.872 266.589,-161.123 272.353,-157.654 270.894,-162.436 270.894,-162.436 270.894,-162.436 272.353,-157.654 275.198,-163.749 273.812,-152.872 273.812,-152.872"/>
<polygon fill="#ccac22" stroke="#ccac22" points="284.671,-117.276 291.894,-109.024 286.13,-112.494 287.589,-107.711 287.589,-107.711 287.589,-107.711 286.13,-112.494 283.285,-106.398 284.671,-117.276 284.671,-117.276"/>
</g>
<!-- User&#45;&gt;PropertyBid -->
<g id="edge3" class="edge"><title>User&#45;&gt;PropertyBid</title>
<path fill="none" stroke="#772da3" d="M282.999,-64.7779C280.505,-58.544 277.81,-51.8046 275.273,-45.4634"/>
<ellipse fill="none" stroke="#772da3" cx="284.567" cy="-68.6971" rx="4.00001" ry="4.00001"/>
<polygon fill="#772da3" stroke="#772da3" points="275.184,-45.241 275.648,-34.2849 273.327,-40.5986 271.47,-35.9562 271.47,-35.9562 271.47,-35.9562 273.327,-40.5986 267.292,-37.6275 275.184,-45.241 275.184,-45.241"/>
</g>
</g>
</svg>
